<svg width="173" height="32" viewBox="0 0 173 32" fill="none" xmlns="http://www.w3.org/2000/svg">
<path d="M45.72 4.82487H49.1155L49.4239 3.09296C49.7534 1.15459 49.0118 0.247208 47.1402 0.247208H42.0791C40.1444 0.247208 39.1575 1.13352 38.807 3.09296L38.3962 5.46394C38.0878 7.31944 38.9514 7.9375 40.7823 8.37153L44.5886 9.31964C44.9994 9.42218 45.0625 9.5261 44.9994 9.89692L44.7527 11.4027C44.691 11.692 44.5886 11.7946 44.2998 11.7946H41.0081C40.6786 11.7946 40.6379 11.692 40.6786 11.4027L40.9463 9.93907H37.5719L37.2424 11.8353C36.8933 13.7526 37.6336 14.6811 39.5052 14.6811H44.8143C46.749 14.6811 47.757 13.7737 48.0865 11.8353L48.5393 9.29855C48.8688 7.44305 47.9631 6.82503 46.1532 6.391L42.3469 5.46253C41.9151 5.36 41.8534 5.23639 41.9151 4.86417L42.1619 3.52419C42.2025 3.21517 42.3259 3.1323 42.5936 3.1323H45.6597C45.9471 3.1323 46.0088 3.21517 45.9471 3.52419L45.7214 4.82346L45.72 4.82487Z" fill="white"/>
<path d="M51.4904 0.248627L51.0165 2.92865H52.7452L51.1609 12.001H49.4323L48.9585 14.6811H56.2009L56.6748 12.001H54.5761L55.0289 9.44465H59.452C61.4063 9.44465 62.3947 8.53727 62.7438 6.5989L63.3607 3.09438C63.6901 1.15601 62.9485 0.248627 61.0769 0.248627H51.489H51.4904ZM59.3918 6.16626C59.3511 6.45561 59.2277 6.55816 58.9389 6.55816H55.5238L56.1407 3.13512H59.5362C59.8656 3.13512 59.9063 3.218 59.8446 3.52702L59.3918 6.16626Z" fill="white"/>
<path d="M71.533 14.6811C73.4873 14.6811 74.4757 13.7737 74.8247 11.8353L76.3472 3.09296C76.6963 1.15459 75.9561 0.247208 74.0635 0.247208H68.4052C66.4705 0.247208 65.4836 1.13352 65.1331 3.09296L63.6106 11.8353C63.2615 13.7526 64.0017 14.6811 65.8747 14.6811H71.533ZM68.4669 3.60845C68.5076 3.29943 68.6309 3.21655 68.8987 3.21655H72.5199C72.8494 3.21655 72.89 3.29943 72.8494 3.60845L71.4909 11.3198C71.4292 11.6092 71.3269 11.7117 71.0381 11.7117H67.4168C67.1084 11.7117 67.0467 11.6092 67.1084 11.3198L68.4669 3.60845Z" fill="white"/>
<path d="M90.2487 3.09296C90.5978 1.15459 89.8576 0.247208 87.965 0.247208H78.3756L77.9228 2.92723H79.6514L78.0462 11.9996H76.3176L75.8438 14.6797H82.6334L83.1072 11.9996H81.4613L81.9548 9.17496H83.8895L85.391 14.6797H89.3417L89.8155 11.9996H88.108L87.2233 8.78307C88.6842 8.57659 89.4454 7.69027 89.7538 5.99911L90.2473 3.09156L90.2487 3.09296ZM82.4301 6.41206L83.0273 3.11261H86.4424C86.7509 3.11261 86.8126 3.19549 86.7509 3.50451L86.3191 6.0202C86.2574 6.32921 86.155 6.41206 85.8452 6.41206H82.4301Z" fill="white"/>
<path d="M104.935 0.248627H92.1777L91.2524 5.52719H94.0718L94.5035 3.0115H96.3555L94.7924 12.001H92.838L92.3642 14.6811H99.7104L100.184 12.001H98.2089L99.7735 3.0115H101.625L101.194 5.52719H104.013L104.938 0.248627H104.935Z" fill="white"/>
<path d="M112.694 4.82487H116.09L116.398 3.09296C116.728 1.15459 115.986 0.247208 114.114 0.247208H109.053C107.119 0.247208 106.132 1.13352 105.781 3.09296L105.37 5.46394C105.062 7.31944 105.926 7.9375 107.756 8.37153L111.563 9.31964C111.974 9.42218 112.037 9.5261 111.974 9.89692L111.727 11.4027C111.665 11.692 111.563 11.7946 111.274 11.7946H107.982C107.653 11.7946 107.612 11.692 107.653 11.4027L107.92 9.93907H104.546L104.217 11.8353C103.867 13.7526 104.608 14.6811 106.481 14.6811H111.79C113.725 14.6811 114.733 13.7737 115.062 11.8353L115.515 9.29855C115.844 7.44305 114.939 6.82503 113.127 6.391L109.321 5.46253C108.889 5.36 108.828 5.23639 108.889 4.86417L109.136 3.52419C109.177 3.21517 109.3 3.1323 109.568 3.1323H112.634C112.921 3.1323 112.983 3.21517 112.921 3.52419L112.695 4.82346L112.694 4.82487Z" fill="white"/>
<path d="M119.699 2.92865L118.094 12.001H116.365L115.892 14.6811H125.604C127.559 14.6811 128.547 13.7526 129.061 10.7847C129.453 8.59908 129.247 7.60881 128.053 7.2998C129.289 6.94864 129.761 6.02161 130.112 3.9807C130.605 1.15602 129.865 0.248627 127.992 0.248627H118.424L117.971 2.92865H119.699ZM122.559 5.95979L123.074 3.07329H126.387C126.778 3.07329 126.839 3.17583 126.593 4.51724C126.367 5.83618 126.244 5.96119 125.872 5.96119H122.559V5.95979ZM121.53 11.8564L122.106 8.53727H125.583C125.974 8.53727 126.015 8.63981 125.747 10.1863C125.46 11.7328 125.377 11.8564 125.007 11.8564H121.53Z" fill="white"/>
<path d="M138.868 14.6811C140.823 14.6811 141.811 13.7737 142.16 11.8353L143.683 3.09296C144.033 1.15459 143.293 0.247208 141.399 0.247208H135.741C133.806 0.247208 132.819 1.13352 132.469 3.09296L130.946 11.8353C130.597 13.7526 131.337 14.6811 133.21 14.6811H138.868ZM135.802 3.60845C135.843 3.29943 135.966 3.21655 136.234 3.21655H139.855C140.185 3.21655 140.225 3.29943 140.185 3.60845L138.826 11.3198C138.765 11.6092 138.662 11.7117 138.374 11.7117H134.752C134.444 11.7117 134.382 11.6092 134.444 11.3198L135.802 3.60845Z" fill="white"/>
<path d="M152.372 14.6811C154.326 14.6811 155.315 13.7737 155.664 11.8353L157.186 3.09296C157.537 1.15459 156.795 0.247208 154.902 0.247208H149.244C147.309 0.247208 146.322 1.13352 145.972 3.09296L144.449 11.8353C144.1 13.7526 144.841 14.6811 146.714 14.6811H152.372ZM149.306 3.60845C149.346 3.29943 149.47 3.21655 149.738 3.21655H153.359C153.688 3.21655 153.73 3.29943 153.688 3.60845L152.33 11.3198C152.268 11.6092 152.166 11.7117 151.878 11.7117H148.256C147.947 11.7117 147.886 11.6092 147.947 11.3198L149.306 3.60845Z" fill="white"/>
<path d="M167.424 6.10447L170.757 2.92865H172.547L173 0.248627H166.662L166.189 2.92865H167.197L163.144 6.9697L163.844 2.92865H165.077L165.551 0.248627H159.234L158.762 2.92865H160.489L158.905 12.001H157.176L156.704 14.6811H163.349L163.823 12.001H162.26L162.464 10.8254L164.892 8.51618L166.929 14.6811H170.901L171.375 12.001H169.523L167.424 6.10447Z" fill="white"/>
<path d="M48.5183 20.4133C48.8674 18.4749 48.1272 17.5676 46.2345 17.5676H36.6452L36.1924 20.2476H37.921L36.3158 29.32H34.5872L34.1133 32H40.9029L41.3768 29.32H39.7309L40.2244 26.4953H42.1591L43.6605 32H47.6112L48.0851 29.32H46.3775L45.4929 26.1034C46.9537 25.8969 47.7149 25.0106 48.0234 23.3195L48.5169 20.4119L48.5183 20.4133ZM40.6996 23.7324L41.2968 20.433H44.712C45.0204 20.433 45.0821 20.5158 45.0204 20.8249L44.5886 23.3405C44.5269 23.6495 44.4232 23.7324 44.1148 23.7324H40.6996Z" fill="white"/>
<path d="M59.078 22.1241H61.8973L62.6992 17.5676H51.0939L50.6201 20.2476H52.3487L50.7645 29.32H49.0359L48.562 32H60.1463L60.9482 27.4434H58.1289L57.8205 29.1753H54.2203L54.7558 26.1034H59.5294L60.0229 23.238H55.2493L55.7638 20.3922H59.385L59.0766 22.1241H59.078Z" fill="white"/>
<path d="M78.1233 20.2476L78.5761 17.5676H72.1762L71.7024 20.2476H72.9375L69.3569 28.2469L68.5746 20.2476H69.8504L70.3032 17.5676H63.986L63.5122 20.2476H65.0964L66.7633 32H70.735L76.5167 20.2476H78.1219H78.1233Z" fill="white"/>
<path d="M84.3637 20.2476H86.1946L86.6684 17.5676H79.59L79.1162 20.2476H80.9471L79.3629 29.32H77.532L77.0581 32H84.1365L84.6104 29.32H82.7794L84.3637 20.2476Z" fill="white"/>
<path d="M96.0316 22.1241H98.8509L99.6528 17.5676H88.0475L87.5737 20.2476H89.3023L87.7181 29.32H85.9895L85.5156 32H97.0999L97.9018 27.4434H95.0825L94.7741 29.1753H91.1739L91.7094 26.1034H96.483L96.9765 23.238H92.2029L92.7174 20.3922H96.3386L96.0302 22.1241H96.0316Z" fill="white"/>
<path d="M120.837 20.2475L121.289 17.5676H114.91L114.437 20.2475H115.98L113.388 27.8142L112.627 17.5661H109.561L105.24 27.8142L105.302 20.2475H106.824L107.277 17.5676H100.939L100.465 20.2475H102.049L102.646 32H106.35L110.26 22.825L110.96 32H114.519L119.252 20.2475H120.837Z" fill="white"/>
<path d="M10.1977 13.3045L6.7433 15.8244L10.0197 15.8286L12.6567 24.2928L11.3823 25.2241L12.3146 28.6795L16.9649 30.5462L21.6151 28.6795L22.5474 25.2241L21.2731 24.2928L23.9143 15.83L27.1865 15.8244L24.1555 13.6121L26.2486 12.3354H31.0516C31.6951 11.9308 32.176 11.3114 32.4059 10.5866C32.7396 9.4966 32.4438 8.2465 31.5241 6.87138L28.2898 2.0367L28.2982 8.13975H20.3226L19.8697 6.74779H26.8991V1.03519L28.601 0L32.6793 6.09743C34.4093 8.68193 34.0294 10.6119 33.4083 11.7777C33.1223 12.3101 32.7382 12.782 32.2741 13.1683C31.9685 13.4225 31.5283 13.7259 31.1722 13.7259H26.6327L30.1684 16.3245L28.6964 17.222H24.9349L22.8965 23.7563L24.1499 24.6693L22.7535 29.7863L16.9691 32L11.1847 29.7863L9.78692 24.6693L11.0375 23.7563L8.99904 17.222H5.23761L3.76557 16.3245L7.30548 13.7259H2.75898C2.40149 13.7259 1.96126 13.4225 1.65704 13.1683C1.193 12.782 0.807481 12.3101 0.521484 11.7777C-0.0995777 10.6119 -0.478108 8.68193 1.25189 6.09743L5.33016 0L7.03211 1.03519V6.74919H14.0629L13.61 8.14116H5.64139V2.0381L2.4085 6.87278C1.48882 8.2479 1.1916 9.49801 1.52667 10.588C1.75659 11.3128 2.23607 11.9322 2.87957 12.3368H8.60509L10.1991 13.3073L10.1977 13.3045Z" fill="#025BFF"/>
<path d="M12.1925 19.4118L14.0375 13.7245L9.20215 10.2101H15.1801L17.0264 4.52426L18.8728 10.2101H24.8465L20.014 13.7245L21.8603 19.4118L17.0278 15.8974L12.1925 19.4118ZM17.025 14.1768L19.2121 15.7682L18.3765 13.1936L20.5649 11.6021H17.8606L17.025 9.02747L16.1895 11.6021H13.4851L15.6735 13.1936L14.838 15.7682L17.025 14.1768Z" fill="#025BFF"/>
</svg>
